<?xml version="1.0" standalone="no"?>
<!DOCTYPE svg PUBLIC "-//W3C//DTD SVG 20010904//EN"
 "http://www.w3.org/TR/2001/REC-SVG-20010904/DTD/svg10.dtd">
<svg version="1.0" xmlns="http://www.w3.org/2000/svg"
 width="512.000000pt" height="512.000000pt" viewBox="0 0 512.000000 512.000000"
 preserveAspectRatio="xMidYMid meet">
<metadata>
Created by potrace 1.14, written by Peter Selinger 2001-2017
</metadata>
<g transform="translate(0.000000,512.000000) scale(0.100000,-0.100000)"
fill="#000000" stroke="none">
<path d="M2487 4694 c-1 -1 -40 -4 -87 -8 -114 -8 -162 -15 -245 -33 -38 -8
-83 -17 -100 -20 -74 -12 -312 -100 -432 -159 -312 -153 -559 -358 -772 -639
-17 -22 -34 -44 -39 -50 -30 -37 -140 -229 -181 -316 -108 -230 -165 -438
-196 -722 -7 -62 -8 -348 -1 -382 2 -11 7 -42 10 -70 4 -27 10 -66 12 -85 25
-175 96 -396 190 -590 324 -664 982 -1118 1719 -1186 85 -8 309 -8 385 0 343
34 654 138 939 315 139 86 202 137 363 291 206 198 366 434 478 704 34 82 86
234 95 277 2 9 12 59 23 110 18 85 30 159 38 244 4 45 5 325 0 365 -13 114
-21 171 -31 220 -3 14 -8 40 -11 59 -25 148 -152 471 -247 626 -107 175 -176
262 -322 410 -148 150 -179 176 -330 276 -305 204 -667 330 -1020 355 -77 5
-235 10 -238 8z"/>
</g>
</svg>
